# Blender v2.76 (sub 0) OBJ File: 'stage.blend'
# www.blender.org
mtllib stage.mtl
o Floor_Plane
v -10.000000 0.000000 10.000000
v 10.000000 0.000000 10.000000
v -10.000000 0.000000 -10.000000
v 10.000000 0.000000 -10.000000
v -10.000000 10.000000 -10.000000
v 10.000000 10.000000 -10.000000
v -10.000000 10.000000 10.000000
v -10.000000 10.000000 -10.000000
vn 0.000000 1.000000 0.000000
vn 0.000000 0.000000 1.000000
vn 1.000000 0.000000 0.000000
usemtl FloorMaterial
s off
f 1//1 2//1 4//1 3//1
usemtl WallMaterial
f 3//2 4//2 6//2 5//2
f 1//3 3//3 8//3 7//3
