# Blender v2.78 (sub 0) OBJ File: 'stage.blend'
# www.blender.org
mtllib stage.mtl
o WallRight_Plane.002
v -10.000000 0.000000 -10.000000
v 10.000000 0.000000 -10.000000
v -10.000000 20.000000 -10.000000
v 10.000000 20.000000 -10.000000
vn 0.0000 0.0000 1.0000
usemtl None
s off
f 2//1 3//1 1//1
f 2//1 4//1 3//1
o WallLeft_Plane.001
v -10.000001 20.000000 10.000000
v -9.999999 0.000000 10.000000
v -10.000001 20.000000 -10.000000
v -9.999999 0.000000 -10.000000
vn 1.0000 0.0000 0.0000
usemtl None
s off
f 6//2 7//2 5//2
f 6//2 8//2 7//2
o Floor_Plane
v -10.000000 0.000000 10.000000
v 10.000000 0.000000 10.000000
v -10.000000 0.000000 -10.000000
v 10.000000 0.000000 -10.000000
vn 0.0000 1.0000 0.0000
usemtl None
s off
f 10//3 11//3 9//3
f 10//3 12//3 11//3
