# Blender v2.78 (sub 0) OBJ File: 'stage.blend'
# www.blender.org
mtllib stage.mtl
o Floor_Plane
v -20.000000 0.000000 20.000000
v 20.000000 0.000000 20.000000
v -20.000000 0.000000 -20.000000
v 20.000000 0.000000 -20.000000
v -20.000000 5.000000 -20.000000
v 20.000000 5.000000 -20.000000
v -20.000000 5.000000 20.000000
v 20.000000 5.000000 20.000000
vn 0.0000 1.0000 0.0000
vn 0.0000 0.0000 1.0000
vn 1.0000 0.0000 0.0000
vn -1.0000 0.0000 0.0000
vn 0.0000 0.0000 -1.0000
usemtl FloorMaterial
s off
f 2//1 3//1 1//1
f 2//1 4//1 3//1
usemtl WallMaterial
f 4//2 5//2 3//2
f 3//3 7//3 1//3
f 6//4 2//4 8//4
f 1//5 8//5 2//5
f 4//2 6//2 5//2
f 3//3 5//3 7//3
f 6//4 4//4 2//4
f 1//5 7//5 8//5
